<svg xmlns="http://www.w3.org/2000/svg" width="19.566" height="23.457" viewBox="0 0 19.566 23.457">
  <g id="XMLID_1193_" transform="translate(-38.747 -30.054)">
    <g id="XMLID_225_" transform="translate(38.747 30.054)">
      <path id="XMLID_625_" d="M58.059,43.212H50a3.178,3.178,0,0,0-.714-4.26V36.59l.361.361a.721.721,0,0,0,1.019,0L53.5,34.118a.721.721,0,0,0,0-1.019l-2.833-2.833a.721.721,0,0,0-1.019,0l-1.865,1.867c-.2.2.063-.064-.968.967a.721.721,0,0,0,0,1.019l1.031,1.031v3.176a3.183,3.183,0,0,0-3.171,4.888H40.345a.721.721,0,0,0-.721.721,9.58,9.58,0,0,0,4.53,8.136c.693.367.768.418,1.507.786a6.383,6.383,0,0,0,3.541.656,9.589,9.589,0,0,0,9.578-9.578.721.721,0,0,0-.721-.721ZM50.154,31.794l1.814,1.814-1.814,1.814L48.34,33.608ZM45.59,41.468a1.744,1.744,0,1,1,1.744,1.744A1.746,1.746,0,0,1,45.59,41.468Zm3.612,10.6a8.148,8.148,0,0,1-8.1-7.415H57.306A8.147,8.147,0,0,1,49.2,52.069Z" transform="translate(-39.231 -30.054)" fill="#fff"/>
      <path id="XMLID_633_" d="M416.293,258.971a3.926,3.926,0,0,0,5.553-5.553.721.721,0,0,0-1.019,0l-4.534,4.533A.721.721,0,0,0,416.293,258.971Zm4.968-3.948a2.485,2.485,0,0,1-3.363,3.363Z" transform="translate(-403.429 -248.405)" fill="#fff"/>
      <path id="XMLID_636_" d="M243.1,192.127a.721.721,0,0,0-.721.721v.285a2.542,2.542,0,0,0-1.778,2.9l.716,3.837a1.813,1.813,0,0,0,3.564,0l.716-3.837a2.542,2.542,0,0,0-1.778-2.9v-.285a.721.721,0,0,0-.721-.721Zm.846,2.74a1.1,1.1,0,0,1,.235.9l-.716,3.837a.371.371,0,0,1-.73,0l-.716-3.837a1.1,1.1,0,0,1,1.928-.9Z" transform="translate(-240.555 -191.727)" fill="#fff"/>
    </g>
  </g>
</svg>
