<svg xmlns="http://www.w3.org/2000/svg" width="177.979" height="125.176" viewBox="0 0 177.979 125.176">
  <g id="Group_7" data-name="Group 7" transform="matrix(-0.629, 0.777, -0.777, -0.629, 192.653, 82.277)">
    <path id="Path_22" data-name="Path 22" d="M10.635,0C6.309,9.171,5.034,21.517,2.97,31.443c-2.95,13.473-4.1,27.132-1.6,40.648a122.832,122.832,0,0,0,12.212,35.315c5.475,9.923,10.514,19.023,14.907,29.355a33.113,33.113,0,0,1,2.7,9.117" transform="translate(23.676 0)" fill="none" stroke="#ff8d8d" stroke-width="0.5"/>
    <path id="Path_23" data-name="Path 23" d="M27.66,22.694c-4.458.56-8.069-2.674-11.131-5.507-4.169-3.859-7.714-8.3-11.639-12.379,1.625,7.039.767,14.838,1.814,21.924C7.169,29.858,8.979,38.169,4.548,39.3c-7.919,2.024-3.114-33.366-3-36.414a1.084,1.084,0,0,1,.546-.957,1.137,1.137,0,0,1-.017-.364C1.966.514,3.084-.559,4.025.331c.191.182.368.376.558.561.009.007.022.013.032.021a1.3,1.3,0,0,1,.323.294c5.606,4.105,11.079,8.3,16.59,12.534,2.72,2.089,6.353,3.858,7.2,7.465A1.3,1.3,0,0,1,27.66,22.694Z" transform="translate(51.868 143.231)" fill="#ff8d8d"/>
    <path id="Path_24" data-name="Path 24" d="M22.88,16.253C15.089,13.466,6.57,9.417.568,3.64A1,1,0,0,1,.321,2.4a1.1,1.1,0,0,1-.016-.185C-.49,1.252.376-.53,1.674.152c1.4.736,2.829,1.443,4.25,2.157,1.192.225,2.391.384,3.246.6,3.993,1.03,7.663,2.986,11.352,4.775,3.467,1.68,12.242,3.158,13.049,7.984C34.366,20.43,24.343,16.778,22.88,16.253Z" transform="translate(51.333 133.103)" fill="#ff8d8d"/>
    <path id="Path_25" data-name="Path 25" d="M24.769,1.75c.284-1.129-1-2.387-1.978-1.384C19.263,4-6.124,28.242,1.379,33.745c3.607,2.645,7.759-6.486,8.724-8.487,3.963-8.211,9.542-14.924,14.481-22.482A1.257,1.257,0,0,0,24.769,1.75Z" transform="translate(24.28 126.502)" fill="#ff8d8d"/>
    <path id="Path_26" data-name="Path 26" d="M32.717,21.128C28.9,23,22.754,18.663,19.523,16.928,13.348,13.612,8.281,8.616,2.287,5A1.094,1.094,0,0,1,1.97,3.337a1.2,1.2,0,0,1-.217-.513,1.669,1.669,0,0,0-.639-.237C-.535,2.356-.275-.216,1.378.015A4.526,4.526,0,0,1,3.139.647a1.392,1.392,0,0,1,.5.17c1.671.953,3.324,1.936,4.973,2.925a13.448,13.448,0,0,1,1.548.683c3.408,1.841,6.708,3.867,10.133,5.682,3.5,1.855,12.7,5.187,13.161,9.631A1.325,1.325,0,0,1,32.717,21.128Z" transform="translate(38.753 111.068)" fill="#ff8d8d"/>
    <path id="Path_27" data-name="Path 27" d="M22.8.742A1.168,1.168,0,0,0,20.9.337C14.963,5.848,10.935,14.011,6.21,20.562,2.749,25.363-1.524,30.784.541,36.983a1.3,1.3,0,0,0,1.712.642c5.158-2.161,6.627-8.567,8.8-13.157,3.616-7.657,9.385-14.277,12.6-22.066A1.206,1.206,0,0,0,22.8.742Z" transform="translate(15.001 106.272)" fill="#ff8d8d"/>
    <path id="Path_28" data-name="Path 28" d="M37.129,24.015c-2.306,1.425-7.063-1.778-8.9-2.77C18.605,16.029,10.276,8.845.83,3.386A1.027,1.027,0,0,1,.32,2.1L.311,2.089C-.772.818,1.238-.809,2.317.459,4.093,2.542,8.488,3.628,10.94,4.936c3.093,1.65,6.187,3.3,9.262,4.978,5.664,3.1,13.18,6.172,17.54,11.1C38.74,22.145,38.271,23.31,37.129,24.015Z" transform="translate(29.398 90.249)" fill="#ff8d8d"/>
    <path id="Path_29" data-name="Path 29" d="M16.419,2.35c-.093.088-.181.19-.27.287a1.477,1.477,0,0,1-.1.27c-1.027,2.075-2.1,4.125-3.177,6.172-.655,1.96-1.183,3.923-1.694,5.424-1.6,4.71-2.543,9.667-3.925,14.447-.652,2.25-2,10.235-5.518,9.829-5.381-.621,3.022-19.054,8.28-29.666C11.126,5.759,12.619,2.4,14.789.343,16-.807,17.621,1.209,16.419,2.35Z" transform="translate(10.227 75.766)" fill="#ff8d8d"/>
    <path id="Path_30" data-name="Path 30" d="M26.653,20.481C18.479,14.074,11,6.882,2.982.293a1.208,1.208,0,0,0-1.95.7A1.183,1.183,0,0,0,.351,2.973C6.782,9.543,12.9,16.4,19.792,22.5c4.037,3.576,10.957,10.876,16.967,10.3a1.281,1.281,0,0,0,.991-.8C39.466,27.848,29.054,22.364,26.653,20.481Z" transform="translate(23.326 64.698)" fill="#ff8d8d"/>
    <path id="Path_31" data-name="Path 31" d="M23.639,2.34c-.042.038-.086.074-.128.112a1.046,1.046,0,0,1-.082.122A108.6,108.6,0,0,0,12.939,17.137C9.973,22.145,6.174,25.859,2.195,30.021c-.7.729-1.946.08-2.09-.789-.8-4.772,3.14-10.679,5.871-14.253C10.313,9.3,16.776,5.131,22.009.334,23.239-.8,24.864,1.218,23.639,2.34Z" transform="translate(0 50.769)" fill="#ff8d8d"/>
    <path id="Path_32" data-name="Path 32" d="M24.42,36.317c-.16.731-.94,1.5-1.756,1.072C10.054,30.767,4.407,14.334.081,1.836A1.382,1.382,0,0,1,1.922.125,1.227,1.227,0,0,1,3.078.834c4.271,8.453,10.1,15.874,15.687,23.477C20.944,27.275,25.285,32.35,24.42,36.317Z" transform="translate(25.14 31.286)" fill="#ff8d8d"/>
    <path id="Path_33" data-name="Path 33" d="M15.887,2.637C12.193,6.316,10.79,14.1,9.333,18.882,8.051,23.093,6.351,27.52,2.883,30.41a1.308,1.308,0,0,1-1.819-.188c-2.636-3.072.274-8,1.784-10.918,1.18-2.279,2.4-4.525,3.563-6.816a82.505,82.505,0,0,1,4.935-7.8A17.326,17.326,0,0,1,12.823,2.3c.291-.51.569-1.026.827-1.554a1.347,1.347,0,0,1,2.546.423A1.33,1.33,0,0,1,15.887,2.637Z" transform="translate(37.474 137.766)" fill="#ff8d8d"/>
    <path id="Path_34" data-name="Path 34" d="M0,0" transform="translate(30.796 149.891)" fill="none" stroke="#af4a4a" stroke-width="0.5"/>
    <path id="Path_35" data-name="Path 35" d="M0,0" transform="translate(35.844 142.96)" fill="none" stroke="#af4a4a" stroke-width="0.5"/>
    <path id="Path_36" data-name="Path 36" d="M0,0" transform="translate(62.644 151.966)" fill="none" stroke="#af4a4a" stroke-width="0.5"/>
    <path id="Path_37" data-name="Path 37" d="M0,0" transform="translate(70.752 159.042)" fill="none" stroke="#af4a4a" stroke-width="0.5"/>
    <path id="Path_38" data-name="Path 38" d="M0,0" transform="translate(76.057 163.056)" fill="none" stroke="#af4a4a" stroke-width="0.5"/>
    <path id="Path_39" data-name="Path 39" d="M0,0" transform="translate(42.477 160.976)" fill="none" stroke="#af4a4a" stroke-width="0.5"/>
    <path id="Path_40" data-name="Path 40" d="M0,0" transform="translate(45.957 150.763)" fill="none" stroke="#af4a4a" stroke-width="0.5"/>
    <path id="Path_41" data-name="Path 41" d="M0,0" transform="translate(54.869 158.442)" fill="none" stroke="#af4a4a" stroke-width="0.5"/>
    <path id="Path_42" data-name="Path 42" d="M0,0" transform="translate(54.103 172.574)" fill="none" stroke="#af4a4a" stroke-width="0.5"/>
    <path id="Path_43" data-name="Path 43" d="M0,0A.6.6,0,0,1,.325.208" transform="translate(62.955 140.559)" fill="none" stroke="#af4a4a" stroke-width="0.5"/>
    <path id="Path_44" data-name="Path 44" d="M0,0" transform="translate(74.107 145.004)" fill="none" stroke="#af4a4a" stroke-width="0.5"/>
    <path id="Path_45" data-name="Path 45" d="M0,0" transform="translate(49.799 118.579)" fill="none" stroke="#af4a4a" stroke-width="0.5"/>
    <path id="Path_46" data-name="Path 46" d="M0,0" transform="translate(60.208 125.198)" fill="none" stroke="#af4a4a" stroke-width="0.5"/>
    <path id="Path_47" data-name="Path 47" d="M0,0" transform="translate(30.8 116.271)" fill="none" stroke="#af4a4a" stroke-width="0.5"/>
    <path id="Path_48" data-name="Path 48" d="M0,0" transform="translate(22.129 129.76)" fill="none" stroke="#af4a4a" stroke-width="0.5"/>
    <path id="Path_49" data-name="Path 49" d="M0,0" transform="translate(43.789 99.587)" fill="none" stroke="#af4a4a" stroke-width="0.5"/>
    <path id="Path_50" data-name="Path 50" d="M0,0" transform="translate(52.895 105.381)" fill="none" stroke="#af4a4a" stroke-width="0.5"/>
    <path id="Path_51" data-name="Path 51" d="M0,0" transform="translate(60.051 109.933)" fill="none" stroke="#af4a4a" stroke-width="0.5"/>
    <path id="Path_52" data-name="Path 52" d="M0,0" transform="translate(19.91 89.151)" fill="none" stroke="#af4a4a" stroke-width="0.5"/>
    <path id="Path_53" data-name="Path 53" d="M0,0" transform="translate(15.672 99.978)" fill="none" stroke="#af4a4a" stroke-width="0.5"/>
    <path id="Path_54" data-name="Path 54" d="M0,0" transform="translate(13.865 107.417)" fill="none" stroke="#af4a4a" stroke-width="0.5"/>
    <path id="Path_55" data-name="Path 55" d="M0,0" transform="translate(36.125 76.44)" fill="none" stroke="#af4a4a" stroke-width="0.5"/>
    <path id="Path_56" data-name="Path 56" d="M0,0" transform="translate(43.566 83.275)" fill="none" stroke="#af4a4a" stroke-width="0.5"/>
    <path id="Path_57" data-name="Path 57" d="M0,0" transform="translate(50.97 90.451)" fill="none" stroke="#af4a4a" stroke-width="0.5"/>
    <path id="Path_58" data-name="Path 58" d="M0,0" transform="translate(32.968 44.918)" fill="none" stroke="#af4a4a" stroke-width="0.5"/>
    <path id="Path_59" data-name="Path 59" d="M0,0" transform="translate(37.333 52.995)" fill="none" stroke="#af4a4a" stroke-width="0.5"/>
    <path id="Path_60" data-name="Path 60" d="M0,0" transform="translate(43.419 59.515)" fill="none" stroke="#af4a4a" stroke-width="0.5"/>
    <path id="Path_61" data-name="Path 61" d="M0,.076H0" transform="translate(12.773 62.515)" fill="none" stroke="#af4a4a" stroke-width="0.5"/>
    <path id="Path_62" data-name="Path 62" d="M0,0" transform="translate(6.454 70.085)" fill="none" stroke="#af4a4a" stroke-width="0.5"/>
    <path id="Path_63" data-name="Path 63" d="M0,0" transform="translate(3.28 75.648)" fill="none" stroke="#af4a4a" stroke-width="0.5"/>
  </g>
</svg>
