<svg xmlns="http://www.w3.org/2000/svg" width="171.467" height="148.539" viewBox="0 0 171.467 148.539">
  <g id="Group_6" data-name="Group 6" transform="translate(0 87.639) rotate(-65)">
    <path id="Path_4" data-name="Path 4" d="M30.341,141.644C6.9,138.886.69,103.03,0,89.238c2.759,2.069,13.792,13.1,17.929,12.412,8.275-2.069,1.379-11.032-2.069-15.17C11.033,80.963,6.9,80.963,5.517,74.068,4.827,69.93,7.586,59.587,8.965,56.14c8.275,6.206,11.722,19.306,20.687,23.443s13.791.691,10.343-8.963c-3.447-8.966-13.791-12.412-18.618-20s-2.069-11.723,4.137-20c6.9,15.171,31.72,20.687,13.1-5.516C26.2,15.455,62.06-2.473,70.335.285c4.828,2.069,17.24,21.376,17.929,26.893,1.38,11.032-4.137,6.206-12.412,10.343-6.895,3.447-13.1,11.033-2.069,13.1,5.517.689,14.481-4.138,20-5.517,2.069,7.586,2.069,15.861,2.069,23.446-6.9,1.378-28.962.689-30.341,11.722-1.38,11.721,22.755,0,28.273-.691.689,8.275,6.206,21.378,0,27.584-6.206,5.515-30.341-4.137-29.652,6.206.69,12.412,34.479,0,18.618,17.927-7.584,8.275-32.409,17.24-52.406,10.343" fill="#6da892"/>
    <path id="Path_5" data-name="Path 5" d="M0,9.327C1.81,3.638,18.1-5.154,15,3.9,12.929,9.327,4.655,10.1,0,10.1" transform="translate(73.182 54.395)" fill="none" stroke="#2f7559" stroke-width="0.5"/>
    <path id="Path_6" data-name="Path 6" d="M18.534,14.908C14.655,13.874-6.032,4.306,1.726.427c5.947-3.1,13.188,11.636,17.325,13.964" transform="translate(24.91 43.642)" fill="none" stroke="#2f7559" stroke-width="0.5"/>
    <path id="Path_7" data-name="Path 7" d="M.776,9.9C3.879,3.957,12.93.854,19.136.078c4.655-.517,11.636,1.552,5.172,5.947C17.068,10.938,6.983,8.87,0,10.938" transform="translate(60.768 90.279)" fill="none" stroke="#2f7559" stroke-width="0.5"/>
    <path id="Path_8" data-name="Path 8" d="M9.568,14.924C7.241,12.855-2.844,4.58.776.96c5.172-5.172,8.792,12.154,9.568,13.964" transform="translate(8.275 104.912)" fill="none" stroke="#2f7559" stroke-width="0.5"/>
    <path id="Path_9" data-name="Path 9" d="M42.149,0c-3.879,16.291-3.879,33.357-7.758,49.648-3.879,16.033-9.309,31.807-15,47.322C15.515,107.314,8.792,122.053,0,129.293" transform="translate(19.653 20.021)" fill="none" stroke="#2f7559" stroke-width="0.5"/>
    <path id="Path_10" data-name="Path 10" d="M0,0C.517,6.206,4.4,11.895,4.4,18.36c4.137-1.034,11.378-5.43,15-8.533" transform="translate(29.738 110.527)" fill="none" stroke="#2f7559" stroke-width="0.5"/>
    <path id="Path_11" data-name="Path 11" d="M0,0C1.81,3.879,4.655,8.533,5.689,12.671h0c3.879-1.552,7.24-4.913,11.119-6.465" transform="translate(38.013 91.133)" fill="none" stroke="#2f7559" stroke-width="0.5"/>
    <path id="Path_12" data-name="Path 12" d="M0,0C.517,3.362,3.1,6.724,4.655,9.569c2.844-.517,5.689-2.844,7.5-4.914" transform="translate(47.322 66.049)" fill="none" stroke="#2f7559" stroke-width="0.5"/>
    <path id="Path_13" data-name="Path 13" d="M0,0A33.085,33.085,0,0,0,5.947,9.568C8.016,7.5,10.085,5.43,11.895,3.362" transform="translate(51.977 33.726)" fill="none" stroke="#2f7559" stroke-width="0.5"/>
    <path id="Path_14" data-name="Path 14" d="M1.751,0a1.811,1.811,0,0,0,0,3.62A1.811,1.811,0,0,0,1.751,0Z" transform="translate(53.07 127.593)" fill="#2f7559"/>
    <path id="Path_15" data-name="Path 15" d="M1.751,0a1.811,1.811,0,0,0,0,3.62A1.811,1.811,0,0,0,1.751,0Z" transform="translate(57.983 121.646)" fill="#2f7559"/>
    <path id="Path_16" data-name="Path 16" d="M1.751,0a1.811,1.811,0,0,0,0,3.62A1.811,1.811,0,0,0,1.751,0Z" transform="translate(60.828 128.369)" fill="#2f7559"/>
    <path id="Path_17" data-name="Path 17" d="M1.751,0a1.811,1.811,0,0,0,0,3.62A1.811,1.811,0,0,0,1.751,0Z" transform="translate(19.196 80.014)" fill="#2f7559"/>
    <path id="Path_18" data-name="Path 18" d="M1.751,0a1.811,1.811,0,0,0,0,3.62A1.811,1.811,0,0,0,1.751,0Z" transform="translate(22.04 84.668)" fill="#2f7559"/>
    <path id="Path_19" data-name="Path 19" d="M1.752,0a1.811,1.811,0,0,0,0,3.62A1.811,1.811,0,0,0,1.752,0Z" transform="translate(67.293 21.573)" fill="#2f7559"/>
    <path id="Path_20" data-name="Path 20" d="M1.752,0a1.811,1.811,0,0,0,0,3.62A1.811,1.811,0,0,0,1.752,0Z" transform="translate(67.81 10.195)" fill="#2f7559"/>
    <path id="Path_21" data-name="Path 21" d="M1.752,0a1.811,1.811,0,0,0,0,3.62A1.811,1.811,0,0,0,1.752,0Z" transform="translate(75.309 15.625)" fill="#2f7559"/>
  </g>
</svg>
