<svg xmlns="http://www.w3.org/2000/svg" width="28" height="29.083" viewBox="0 0 28 29.083">
  <g id="Group_3996" data-name="Group 3996" transform="translate(-344 -64.959)">
    <g id="alarm" transform="translate(299.803 64.959)">
      <g id="Group_3994" data-name="Group 3994" transform="translate(44.197)">
        <path id="Path_2464" data-name="Path 2464" d="M68.2,21.636a1.136,1.136,0,0,0-2.233.418A1.137,1.137,0,0,1,64.85,23.4H47.605a1.137,1.137,0,0,1-1.116-1.348,11.723,11.723,0,0,1,1.594-3.944,8.986,8.986,0,0,0,1.545-4.819v-1.7A6.615,6.615,0,0,1,56.12,5h.215a6.6,6.6,0,0,1,6.471,6.588v1.7a8.038,8.038,0,0,0,1.142,4.063,1.136,1.136,0,1,0,2-1.081,5.785,5.785,0,0,1-.868-2.981v-1.7A8.873,8.873,0,0,0,57.353,2.8V1.136a1.136,1.136,0,1,0-2.272,0V2.8a8.9,8.9,0,0,0-7.725,8.788v1.7a6.85,6.85,0,0,1-1.245,3.691,13.8,13.8,0,0,0-1.855,4.653,3.409,3.409,0,0,0,3.35,4.038h5.225a3.408,3.408,0,1,0,6.816,0h5.2a3.409,3.409,0,0,0,3.35-4.038ZM56.239,26.811A1.137,1.137,0,0,1,55.1,25.675h2.272A1.137,1.137,0,0,1,56.239,26.811Z" transform="translate(-44.197)" fill="#fff"/>
      </g>
    </g>
    <circle id="Ellipse_128" data-name="Ellipse 128" cx="5.5" cy="5.5" r="5.5" transform="translate(361 76)" fill="#f24394"/>
  </g>
</svg>
