<svg id="_007-pizza" data-name="007-pizza" xmlns="http://www.w3.org/2000/svg" xmlns:xlink="http://www.w3.org/1999/xlink" width="42.844" height="37.153" viewBox="0 0 42.844 37.153">
  <defs>
    <linearGradient id="linear-gradient" x1="0.444" y1="0.531" x2="0.5" y2="0.687" gradientUnits="objectBoundingBox">
      <stop offset="0" stop-color="#faa68e"/>
      <stop offset="0.206" stop-color="#fba682"/>
      <stop offset="0.581" stop-color="#fda861"/>
      <stop offset="1" stop-color="#ffa936"/>
    </linearGradient>
    <linearGradient id="linear-gradient-2" x1="0.503" y1="0.506" x2="0.455" y2="0.222" gradientUnits="objectBoundingBox">
      <stop offset="0" stop-color="#f82814" stop-opacity="0"/>
      <stop offset="0.245" stop-color="#f12817" stop-opacity="0.243"/>
      <stop offset="0.605" stop-color="#dd2820" stop-opacity="0.604"/>
      <stop offset="1" stop-color="#c0272d"/>
    </linearGradient>
    <linearGradient id="linear-gradient-3" x1="0.295" y1="0.357" x2="0.538" y2="0.735" gradientUnits="objectBoundingBox">
      <stop offset="0" stop-color="#ffd945"/>
      <stop offset="0.304" stop-color="#ffcd3e"/>
      <stop offset="0.856" stop-color="#ffad2b"/>
      <stop offset="1" stop-color="#ffa325"/>
    </linearGradient>
    <linearGradient id="linear-gradient-4" x1="0.481" y1="0.424" x2="0.603" y2="0.224" gradientUnits="objectBoundingBox">
      <stop offset="0" stop-color="#f82814" stop-opacity="0"/>
      <stop offset="1" stop-color="#c0272d"/>
    </linearGradient>
    <linearGradient id="linear-gradient-5" x1="0.528" y1="0.448" x2="-0.226" y2="-0.64" xlink:href="#linear-gradient-4"/>
    <linearGradient id="linear-gradient-6" x1="0.475" y1="0.467" x2="0.055" y2="-0.508" xlink:href="#linear-gradient-4"/>
    <linearGradient id="linear-gradient-7" x1="0.551" y1="0.508" x2="0.169" y2="-0.353" xlink:href="#linear-gradient-4"/>
    <linearGradient id="linear-gradient-8" x1="0.615" y1="0.608" x2="0.258" y2="-0.125" xlink:href="#linear-gradient-4"/>
    <linearGradient id="linear-gradient-9" x1="0.393" y1="0.133" x2="0.607" y2="0.869" gradientUnits="objectBoundingBox">
      <stop offset="0" stop-color="#bada00"/>
      <stop offset="0.227" stop-color="#b0ce00"/>
      <stop offset="0.638" stop-color="#95ae00"/>
      <stop offset="1" stop-color="#798c00"/>
    </linearGradient>
    <linearGradient id="linear-gradient-10" x1="256.866" y1="-388.341" x2="258.251" y2="-386.422" gradientUnits="objectBoundingBox">
      <stop offset="0" stop-color="#798c00" stop-opacity="0"/>
      <stop offset="0.654" stop-color="#556100" stop-opacity="0.655"/>
      <stop offset="1" stop-color="#464f00"/>
    </linearGradient>
    <linearGradient id="linear-gradient-11" x1="327.674" y1="-495.304" x2="329.058" y2="-493.384" xlink:href="#linear-gradient-10"/>
    <linearGradient id="linear-gradient-12" x1="536.196" y1="-822.649" x2="537.579" y2="-820.73" xlink:href="#linear-gradient-10"/>
    <linearGradient id="linear-gradient-14" x1="282.146" y1="-411.488" x2="283.53" y2="-409.568" xlink:href="#linear-gradient-10"/>
    <linearGradient id="linear-gradient-15" x1="359.702" y1="-524.63" x2="361.085" y2="-522.71" xlink:href="#linear-gradient-10"/>
    <linearGradient id="linear-gradient-16" x1="589.319" y1="-871.288" x2="590.702" y2="-869.369" xlink:href="#linear-gradient-10"/>
    <linearGradient id="linear-gradient-18" x1="249.729" y1="-417.048" x2="251.113" y2="-415.13" xlink:href="#linear-gradient-10"/>
    <linearGradient id="linear-gradient-19" x1="318.631" y1="-531.677" x2="320.016" y2="-529.757" xlink:href="#linear-gradient-10"/>
    <linearGradient id="linear-gradient-20" x1="521.198" y1="-882.976" x2="522.581" y2="-881.058" xlink:href="#linear-gradient-10"/>
    <linearGradient id="linear-gradient-22" x1="204.013" y1="-401.193" x2="205.397" y2="-399.274" xlink:href="#linear-gradient-10"/>
    <linearGradient id="linear-gradient-23" x1="260.715" y1="-511.587" x2="262.099" y2="-509.667" xlink:href="#linear-gradient-10"/>
    <linearGradient id="linear-gradient-24" x1="425.132" y1="-849.656" x2="426.518" y2="-847.738" xlink:href="#linear-gradient-10"/>
    <linearGradient id="linear-gradient-26" x1="257.253" y1="-362.129" x2="258.638" y2="-360.211" xlink:href="#linear-gradient-10"/>
    <linearGradient id="linear-gradient-27" x1="328.163" y1="-462.097" x2="329.548" y2="-460.177" xlink:href="#linear-gradient-10"/>
    <linearGradient id="linear-gradient-28" x1="537.009" y1="-767.571" x2="538.392" y2="-765.652" xlink:href="#linear-gradient-10"/>
    <linearGradient id="linear-gradient-29" x1="7.69" y1="1.614" x2="7.902" y2="2.188" gradientUnits="objectBoundingBox">
      <stop offset="0" stop-color="#ffdecf"/>
      <stop offset="0.379" stop-color="#fdc4b0"/>
      <stop offset="0.766" stop-color="#fbae97"/>
      <stop offset="1" stop-color="#faa68e"/>
    </linearGradient>
    <linearGradient id="linear-gradient-30" x1="3.563" y1="-35.47" x2="3.769" y2="-34.893" xlink:href="#linear-gradient-29"/>
    <linearGradient id="linear-gradient-31" x1="0.415" y1="0.279" x2="0.884" y2="1.274" gradientUnits="objectBoundingBox">
      <stop offset="0" stop-color="#a57c52"/>
      <stop offset="0.134" stop-color="#a26c4a"/>
      <stop offset="0.516" stop-color="#994336"/>
      <stop offset="0.817" stop-color="#942a2a"/>
      <stop offset="1" stop-color="#922125"/>
    </linearGradient>
    <linearGradient id="linear-gradient-32" x1="10.738" y1="2.411" x2="10.95" y2="2.984" xlink:href="#linear-gradient-29"/>
    <linearGradient id="linear-gradient-33" x1="5.276" y1="-48.72" x2="5.481" y2="-48.143" xlink:href="#linear-gradient-29"/>
    <linearGradient id="linear-gradient-34" x1="0.343" y1="0.204" x2="0.965" y2="1.545" xlink:href="#linear-gradient-31"/>
    <linearGradient id="linear-gradient-35" x1="0.393" y1="0.133" x2="0.607" y2="0.869" gradientUnits="objectBoundingBox">
      <stop offset="0" stop-color="#ff6359"/>
      <stop offset="0.224" stop-color="#fe5b50"/>
      <stop offset="0.595" stop-color="#fc4637"/>
      <stop offset="1" stop-color="#f82814"/>
    </linearGradient>
    <linearGradient id="linear-gradient-36" x1="120.151" y1="-208.275" x2="121.536" y2="-206.355" xlink:href="#linear-gradient-2"/>
    <linearGradient id="linear-gradient-37" x1="154.428" y1="-267.106" x2="155.812" y2="-265.187" xlink:href="#linear-gradient-2"/>
    <linearGradient id="linear-gradient-38" x1="248.869" y1="-444.196" x2="250.254" y2="-442.276" xlink:href="#linear-gradient-2"/>
    <linearGradient id="linear-gradient-40" x1="146.216" y1="-220.633" x2="147.601" y2="-218.714" xlink:href="#linear-gradient-2"/>
    <linearGradient id="linear-gradient-41" x1="187.442" y1="-282.76" x2="188.827" y2="-280.84" xlink:href="#linear-gradient-2"/>
    <linearGradient id="linear-gradient-42" x1="303.634" y1="-470.162" x2="305.018" y2="-468.242" xlink:href="#linear-gradient-2"/>
    <linearGradient id="linear-gradient-44" x1="0.869" y1="1.246" x2="-0.143" y2="-1.284" xlink:href="#linear-gradient-10"/>
    <linearGradient id="linear-gradient-45" x1="9.684" y1="1.018" x2="9.895" y2="1.592" xlink:href="#linear-gradient-29"/>
    <linearGradient id="linear-gradient-46" x1="2.229" y1="-44.51" x2="2.434" y2="-43.933" xlink:href="#linear-gradient-29"/>
    <linearGradient id="linear-gradient-47" x1="0.297" y1="-0.07" x2="0.529" y2="0.58" gradientUnits="objectBoundingBox">
      <stop offset="0" stop-color="#8a7889"/>
      <stop offset="0.334" stop-color="#867385"/>
      <stop offset="0.704" stop-color="#7b667b"/>
      <stop offset="1" stop-color="#6e566e"/>
    </linearGradient>
    <linearGradient id="linear-gradient-49" x1="0.297" y1="-0.07" x2="0.529" y2="0.58" xlink:href="#linear-gradient-47"/>
    <linearGradient id="linear-gradient-52" x1="145.974" y1="-205.322" x2="147.358" y2="-203.402" xlink:href="#linear-gradient-2"/>
    <linearGradient id="linear-gradient-53" x1="187.135" y1="-263.366" x2="188.52" y2="-261.446" xlink:href="#linear-gradient-2"/>
    <linearGradient id="linear-gradient-54" x1="303.125" y1="-437.991" x2="304.509" y2="-436.071" xlink:href="#linear-gradient-2"/>
    <linearGradient id="linear-gradient-56" x1="0.566" y1="0.371" x2="0.448" y2="0.6" xlink:href="#linear-gradient"/>
  </defs>
  <path id="Path_1678" data-name="Path 1678" d="M29.119,97.9s-13.016,7.963-17.828,29.6a1.777,1.777,0,0,0,2.8,1.808A81.126,81.126,0,0,1,49.1,114.438a2.724,2.724,0,0,0,1.859-4.154c-2.564-4.03-8.566-10.233-21.839-12.381Z" transform="translate(-10.301 -92.523)" fill="url(#linear-gradient)"/>
  <path id="Path_1679" data-name="Path 1679" d="M50.92,244.7a81,81,0,0,0-38.241,15.336,1.75,1.75,0,0,1-1.022.362c-.128.518-.254,1.041-.372,1.575a1.777,1.777,0,0,0,2.8,1.806A81.124,81.124,0,0,1,49.1,248.9a2.719,2.719,0,0,0,1.859-4.138Z" transform="translate(-10.294 -226.99)" fill="url(#linear-gradient-2)"/>
  <path id="Path_1680" data-name="Path 1680" d="M41.341,100.45s-3.39-12.169-23.675-14.981c0,0-12.956,7.852-17.624,28.686a1.752,1.752,0,0,0,2.812,1.685c.5-.372,1.051-.769,1.649-1.186a1.13,1.13,0,0,1,1.777.927v.065a1.748,1.748,0,0,0,3.5,0v-1.831A4.344,4.344,0,0,1,12.041,110a84.93,84.93,0,0,1,12.081-5.409,1.131,1.131,0,0,1,1.51,1.065,1.748,1.748,0,0,0,3.5,0v-2.25a.565.565,0,0,1,.412-.544l.011,0a.568.568,0,0,1,.722.547v5.7a1.748,1.748,0,0,0,3.5,0v-4.862a3.015,3.015,0,0,1,2.434-2.963Q38.7,100.794,41.341,100.45Z" transform="translate(0 -81.135)" fill="url(#linear-gradient-3)"/>
  <path id="Path_1681" data-name="Path 1681" d="M148.7,85.47a29.754,29.754,0,0,0-5.649,4.926L159.6,106.942a1.742,1.742,0,0,0,.566-1.285v-2.25a.565.565,0,0,1,.412-.544l.011,0a.568.568,0,0,1,.722.547v5.246l2.151,2.151a1.748,1.748,0,0,0,1.346-1.7v-4.862a3.015,3.015,0,0,1,2.434-2.963q2.5-.485,5.136-.828S168.986,88.282,148.7,85.47Z" transform="translate(-131.034 -81.136)" fill="url(#linear-gradient-4)"/>
  <path id="Path_1682" data-name="Path 1682" d="M165.755,116.664a4.039,4.039,0,0,0-.6-.55,5.9,5.9,0,0,0-6.713,0,2.973,2.973,0,0,0-.273,4.837l13.507,13.507a1.747,1.747,0,0,0,1.312-1.691v-2.25a.565.565,0,0,1,.412-.544l.011,0a.568.568,0,0,1,.722.547v5.7a1.741,1.741,0,0,0,.392,1.1,4.068,4.068,0,0,0,.393.356,1.747,1.747,0,0,0,2.711-1.459V131.35a3.022,3.022,0,0,1,.781-2.029Z" transform="translate(-143.86 -108.244)" fill="url(#linear-gradient-5)"/>
  <path id="Path_1683" data-name="Path 1683" d="M108.706,187.459a4.16,4.16,0,0,0-3.13-1.24c-2.023,0-3.662,1.155-3.662,2.58a2.156,2.156,0,0,0,.8,1.608l8.82,8.848c1.859-.827,3.841-1.629,5.941-2.378a1.118,1.118,0,0,1,.572-.049Z" transform="translate(-93.352 -173.421)" fill="url(#linear-gradient-6)"/>
  <path id="Path_1684" data-name="Path 1684" d="M218.554,212.939a4.2,4.2,0,0,0-3.085-1.191c-2.023,0-3.662,1.155-3.662,2.58,0,.058,0,.116.009.173a5.08,5.08,0,0,0-5.187.343,2.535,2.535,0,0,0-.269,4.1l2.6,2.6q1.621-.657,3.349-1.276a1.131,1.131,0,0,1,1.51,1.065,1.748,1.748,0,0,0,3.5,0v-2.25a.565.565,0,0,1,.412-.544l.011,0a.568.568,0,0,1,.722.547v5.7a1.748,1.748,0,0,0,3.5,0v-4.862a3.023,3.023,0,0,1,1.178-2.395Z" transform="translate(-188.183 -196.805)" fill="url(#linear-gradient-7)"/>
  <path id="Path_1685" data-name="Path 1685" d="M47.57,297.014l-3-3a4.2,4.2,0,0,0-3.085-1.191,3.823,3.823,0,0,0-3.446,1.705,5.065,5.065,0,0,0-4.484.64,2.535,2.535,0,0,0-.269,4.1l6.141,6.141v-1.657a4.344,4.344,0,0,1,2.264-3.815c1.791-.976,3.756-1.962,5.884-2.916Z" transform="translate(-29.645 -271.066)" fill="url(#linear-gradient-8)"/>
  <g id="Group_27" data-name="Group 27" transform="translate(0.806 8.687)">
    <g id="Group_23" data-name="Group 23" transform="translate(6.026 8.585)">
      <path id="Path_1686" data-name="Path 1686" d="M91.386,250.881a.311.311,0,1,0-.421.129A.311.311,0,0,0,91.386,250.881Z" transform="translate(-90.003 -249.505)" fill="#ffeaa2"/>
      <path id="Path_1687" data-name="Path 1687" d="M81.677,257.048a.246.246,0,1,0,.1.332A.246.246,0,0,0,81.677,257.048Z" transform="translate(-81.316 -255.546)" fill="#ffeaa2"/>
      <path id="Path_1688" data-name="Path 1688" d="M86.456,272.423a.148.148,0,1,0,.061.2A.148.148,0,0,0,86.456,272.423Z" transform="translate(-85.825 -269.64)" fill="#ffeaa2"/>
      <path id="Path_1689" data-name="Path 1689" d="M110.627,277.482a.311.311,0,1,0,.3.32A.311.311,0,0,0,110.627,277.482Z" transform="translate(-107.871 -274.289)" fill="#ffeaa2"/>
      <path id="Path_1690" data-name="Path 1690" d="M130.64,251.271a.246.246,0,1,0,.239.253A.246.246,0,0,0,130.64,251.271Z" transform="translate(-126.265 -250.28)" fill="#ffeaa2"/>
      <path id="Path_1691" data-name="Path 1691" d="M104.558,252.382a.148.148,0,1,0,.144.152A.148.148,0,0,0,104.558,252.382Z" transform="translate(-102.466 -251.298)" fill="#ffeaa2"/>
      <path id="Path_1692" data-name="Path 1692" d="M98.449,267.512a.23.23,0,1,0,.275.173A.23.23,0,0,0,98.449,267.512Z" transform="translate(-96.846 -265.152)" fill="#ffeaa2"/>
      <path id="Path_1693" data-name="Path 1693" d="M101.925,259.881a.182.182,0,1,0,.217.137A.182.182,0,0,0,101.925,259.881Z" transform="translate(-100.064 -258.163)" fill="#ffeaa2"/>
      <path id="Path_1694" data-name="Path 1694" d="M93.219,261.8a.109.109,0,1,0-.131-.082A.109.109,0,0,0,93.219,261.8Z" transform="translate(-92.096 -259.729)" fill="#ffeaa2"/>
      <path id="Path_1695" data-name="Path 1695" d="M160.079,239.936a.311.311,0,1,0-.421.129A.311.311,0,0,0,160.079,239.936Z" transform="translate(-152.926 -239.479)" fill="#ffeaa2"/>
      <path id="Path_1696" data-name="Path 1696" d="M144.6,276.475a.246.246,0,1,0,.1.332A.246.246,0,0,0,144.6,276.475Z" transform="translate(-138.951 -273.341)" fill="#ffeaa2"/>
      <path id="Path_1697" data-name="Path 1697" d="M141.535,260.505a.148.148,0,1,0,.061.2A.148.148,0,0,0,141.535,260.505Z" transform="translate(-136.277 -258.723)" fill="#ffeaa2"/>
      <path id="Path_1698" data-name="Path 1698" d="M183.164,249.92a.311.311,0,1,0,.3.32A.311.311,0,0,0,183.164,249.92Z" transform="translate(-174.314 -249.042)" fill="#ffeaa2"/>
      <path id="Path_1699" data-name="Path 1699" d="M180.885,242.22a.246.246,0,1,0-.253.239A.246.246,0,0,0,180.885,242.22Z" transform="translate(-172.071 -241.759)" fill="#ffeaa2"/>
      <path id="Path_1700" data-name="Path 1700" d="M173.252,241.436a.148.148,0,1,0,.144.152A.148.148,0,0,0,173.252,241.436Z" transform="translate(-165.389 -241.272)" fill="#ffeaa2"/>
      <path id="Path_1701" data-name="Path 1701" d="M156.983,266.97a.23.23,0,1,0,.275.173A.23.23,0,0,0,156.983,266.97Z" transform="translate(-150.463 -264.655)" fill="#ffeaa2"/>
      <path id="Path_1702" data-name="Path 1702" d="M170.618,248.935a.182.182,0,1,0,.217.137A.182.182,0,0,0,170.618,248.935Z" transform="translate(-162.986 -248.137)" fill="#ffeaa2"/>
      <path id="Path_1703" data-name="Path 1703" d="M161.913,250.857a.109.109,0,1,0-.131-.082A.109.109,0,0,0,161.913,250.857Z" transform="translate(-155.02 -249.703)" fill="#ffeaa2"/>
    </g>
    <g id="Group_24" data-name="Group 24" transform="translate(15.024)">
      <path id="Path_1704" data-name="Path 1704" d="M198.5,299.384a.311.311,0,1,0-.421.129A.311.311,0,0,0,198.5,299.384Z" transform="translate(-197.115 -285.348)" fill="#ffeaa2"/>
      <path id="Path_1705" data-name="Path 1705" d="M188.789,305.551a.246.246,0,1,0,.1.332A.246.246,0,0,0,188.789,305.551Z" transform="translate(-188.428 -291.389)" fill="#ffeaa2"/>
      <path id="Path_1706" data-name="Path 1706" d="M193.569,320.926a.148.148,0,1,0,.061.2A.148.148,0,0,0,193.569,320.926Z" transform="translate(-192.938 -305.483)" fill="#ffeaa2"/>
      <path id="Path_1707" data-name="Path 1707" d="M217.74,325.985a.311.311,0,1,0,.3.32A.311.311,0,0,0,217.74,325.985Z" transform="translate(-214.984 -310.132)" fill="#ffeaa2"/>
      <path id="Path_1708" data-name="Path 1708" d="M381.812,240.932a.246.246,0,1,0-.117.327A.246.246,0,0,0,381.812,240.932Z" transform="translate(-365.138 -232.096)" fill="#ffeaa2"/>
      <path id="Path_1709" data-name="Path 1709" d="M211.671,300.885a.148.148,0,1,0,.144.152A.148.148,0,0,0,211.671,300.885Z" transform="translate(-209.579 -287.141)" fill="#ffeaa2"/>
      <path id="Path_1710" data-name="Path 1710" d="M205.561,316.015a.23.23,0,1,0,.275.173A.23.23,0,0,0,205.561,316.015Z" transform="translate(-203.958 -300.995)" fill="#ffeaa2"/>
      <path id="Path_1711" data-name="Path 1711" d="M209.037,308.384a.182.182,0,1,0,.217.137A.182.182,0,0,0,209.037,308.384Z" transform="translate(-207.176 -294.006)" fill="#ffeaa2"/>
      <path id="Path_1712" data-name="Path 1712" d="M200.331,310.305a.109.109,0,1,0-.131-.082A.109.109,0,0,0,200.331,310.305Z" transform="translate(-199.208 -295.572)" fill="#ffeaa2"/>
      <path id="Path_1713" data-name="Path 1713" d="M198.757,137.739a.311.311,0,1,0-.421.129A.311.311,0,0,0,198.757,137.739Z" transform="translate(-197.353 -137.282)" fill="#ffeaa2"/>
      <path id="Path_1714" data-name="Path 1714" d="M365.675,264.8a.246.246,0,1,0-.25.241A.246.246,0,0,0,365.675,264.8Z" transform="translate(-350.335 -253.859)" fill="#ffeaa2"/>
      <path id="Path_1715" data-name="Path 1715" d="M380.049,254.462a.148.148,0,1,0-.151.146A.148.148,0,0,0,380.049,254.462Z" transform="translate(-363.68 -244.48)" fill="#ffeaa2"/>
      <path id="Path_1716" data-name="Path 1716" d="M221.842,147.723a.311.311,0,1,0,.3.32A.311.311,0,0,0,221.842,147.723Z" transform="translate(-218.741 -146.845)" fill="#ffeaa2"/>
      <path id="Path_1717" data-name="Path 1717" d="M219.563,140.023a.246.246,0,1,0-.253.239A.246.246,0,0,0,219.563,140.023Z" transform="translate(-216.498 -139.562)" fill="#ffeaa2"/>
      <path id="Path_1718" data-name="Path 1718" d="M211.929,139.24a.148.148,0,1,0,.144.152A.148.148,0,0,0,211.929,139.24Z" transform="translate(-209.815 -139.076)" fill="#ffeaa2"/>
      <path id="Path_1719" data-name="Path 1719" d="M380.008,271.473a.23.23,0,1,0-.03.324A.23.23,0,0,0,380.008,271.473Z" transform="translate(-363.541 -260.124)" fill="#ffeaa2"/>
      <path id="Path_1720" data-name="Path 1720" d="M209.3,146.739a.182.182,0,1,0,.217.137A.182.182,0,0,0,209.3,146.739Z" transform="translate(-207.413 -145.94)" fill="#ffeaa2"/>
      <path id="Path_1721" data-name="Path 1721" d="M200.59,148.66a.109.109,0,1,0-.131-.082A.109.109,0,0,0,200.59,148.66Z" transform="translate(-199.446 -147.506)" fill="#ffeaa2"/>
    </g>
    <g id="Group_25" data-name="Group 25" transform="translate(17.158 4.376)">
      <path id="Path_1722" data-name="Path 1722" d="M305.723,217.916a.311.311,0,1,0,.429-.1A.311.311,0,0,0,305.723,217.916Z" transform="translate(-297.96 -215.385)" fill="#ffeaa2"/>
      <path id="Path_1723" data-name="Path 1723" d="M317.227,213.945a.246.246,0,1,0-.078-.339A.246.246,0,0,0,317.227,213.945Z" transform="translate(-308.436 -211.465)" fill="#ffeaa2"/>
      <path id="Path_1724" data-name="Path 1724" d="M315.62,200.466a.148.148,0,1,0-.047-.2A.148.148,0,0,0,315.62,200.466Z" transform="translate(-307.005 -199.284)" fill="#ffeaa2"/>
      <path id="Path_1725" data-name="Path 1725" d="M288.452,190a.311.311,0,1,0-.278-.341A.311.311,0,0,0,288.452,190Z" transform="translate(-281.927 -189.378)" fill="#ffeaa2"/>
      <path id="Path_1726" data-name="Path 1726" d="M267.976,216.177a.246.246,0,1,0-.22-.269A.246.246,0,0,0,267.976,216.177Z" transform="translate(-263.225 -213.477)" fill="#ffeaa2"/>
      <path id="Path_1727" data-name="Path 1727" d="M296.119,219.151a.148.148,0,1,0-.133-.162A.148.148,0,0,0,296.119,219.151Z" transform="translate(-289.085 -216.38)" fill="#ffeaa2"/>
      <path id="Path_1728" data-name="Path 1728" d="M301.584,202.653a.23.23,0,1,0-.262-.193A.23.23,0,0,0,301.584,202.653Z" transform="translate(-293.97 -201.119)" fill="#ffeaa2"/>
      <path id="Path_1729" data-name="Path 1729" d="M298.584,211.107a.182.182,0,1,0-.207-.152A.182.182,0,0,0,298.584,211.107Z" transform="translate(-291.273 -208.951)" fill="#ffeaa2"/>
      <path id="Path_1730" data-name="Path 1730" d="M308.92,211.445a.109.109,0,1,0,.125.092A.11.11,0,0,0,308.92,211.445Z" transform="translate(-300.847 -209.59)" fill="#ffeaa2"/>
      <path id="Path_1731" data-name="Path 1731" d="M236.42,223.88a.311.311,0,1,0,.429-.1A.311.311,0,0,0,236.42,223.88Z" transform="translate(-234.479 -220.848)" fill="#ffeaa2"/>
      <path id="Path_1732" data-name="Path 1732" d="M255.871,190.032a.246.246,0,1,0-.078-.339A.246.246,0,0,0,255.871,190.032Z" transform="translate(-252.234 -189.561)" fill="#ffeaa2"/>
      <path id="Path_1733" data-name="Path 1733" d="M259.825,208.382a.148.148,0,1,0-.047-.2A.148.148,0,0,0,259.825,208.382Z" transform="translate(-255.898 -206.535)" fill="#ffeaa2"/>
      <path id="Path_1734" data-name="Path 1734" d="M214.117,212.26a.311.311,0,1,0-.278-.341A.311.311,0,0,0,214.117,212.26Z" transform="translate(-213.837 -209.769)" fill="#ffeaa2"/>
      <path id="Path_1735" data-name="Path 1735" d="M217.209,221.581a.246.246,0,1,0,.269-.22A.246.246,0,0,0,217.209,221.581Z" transform="translate(-216.925 -218.673)" fill="#ffeaa2"/>
      <path id="Path_1736" data-name="Path 1736" d="M226.815,225.115a.148.148,0,1,0-.133-.162A.148.148,0,0,0,226.815,225.115Z" transform="translate(-225.603 -221.843)" fill="#ffeaa2"/>
      <path id="Path_1737" data-name="Path 1737" d="M243.163,198.974a.23.23,0,1,0-.262-.193A.23.23,0,0,0,243.163,198.974Z" transform="translate(-240.457 -197.749)" fill="#ffeaa2"/>
      <path id="Path_1738" data-name="Path 1738" d="M229.28,217.072a.182.182,0,1,0-.207-.152A.182.182,0,0,0,229.28,217.072Z" transform="translate(-227.791 -214.415)" fill="#ffeaa2"/>
      <path id="Path_1739" data-name="Path 1739" d="M239.616,217.41a.109.109,0,1,0,.125.092A.11.11,0,0,0,239.616,217.41Z" transform="translate(-237.365 -215.054)" fill="#ffeaa2"/>
    </g>
    <g id="Group_26" data-name="Group 26" transform="translate(0 19.794)">
      <path id="Path_1740" data-name="Path 1740" d="M96.024,392.282a.311.311,0,1,0,.352-.264A.311.311,0,0,0,96.024,392.282Z" transform="translate(-88.76 -390.409)" fill="#ffeaa2"/>
      <path id="Path_1741" data-name="Path 1741" d="M104.7,384.338a.246.246,0,1,0-.208-.278A.246.246,0,0,0,104.7,384.338Z" transform="translate(-96.516 -382.929)" fill="#ffeaa2"/>
      <path id="Path_1742" data-name="Path 1742" d="M97.42,373.194a.148.148,0,1,0-.126-.168A.148.148,0,0,0,97.42,373.194Z" transform="translate(-89.925 -372.899)" fill="#ffeaa2"/>
      <path id="Path_1743" data-name="Path 1743" d="M68.91,373.773a.311.311,0,1,0-.393-.2A.311.311,0,0,0,68.91,373.773Z" transform="translate(-63.553 -373.143)" fill="#ffeaa2"/>
      <path id="Path_1744" data-name="Path 1744" d="M60.589,406.359a.246.246,0,1,0-.31-.157A.246.246,0,0,0,60.589,406.359Z" transform="translate(-56.009 -403.11)" fill="#ffeaa2"/>
      <path id="Path_1745" data-name="Path 1745" d="M87.177,398.182a.148.148,0,1,0-.187-.095A.148.148,0,0,0,87.177,398.182Z" transform="translate(-80.481 -395.794)" fill="#ffeaa2"/>
      <path id="Path_1746" data-name="Path 1746" d="M85.764,380.448a.23.23,0,1,0-.318-.07A.23.23,0,0,0,85.764,380.448Z" transform="translate(-79.041 -379.426)" fill="#ffeaa2"/>
      <path id="Path_1747" data-name="Path 1747" d="M86.283,389.651a.182.182,0,1,0-.251-.055A.182.182,0,0,0,86.283,389.651Z" transform="translate(-79.584 -387.937)" fill="#ffeaa2"/>
      <path id="Path_1748" data-name="Path 1748" d="M95.616,386.154a.109.109,0,1,0,.151.033A.109.109,0,0,0,95.616,386.154Z" transform="translate(-88.343 -385.024)" fill="#ffeaa2"/>
      <path id="Path_1749" data-name="Path 1749" d="M35.1,425.85a.311.311,0,1,0,.352-.264A.311.311,0,0,0,35.1,425.85Z" transform="translate(-32.953 -421.157)" fill="#ffeaa2"/>
      <path id="Path_1750" data-name="Path 1750" d="M38.917,387.373a.246.246,0,1,0-.208-.278A.246.246,0,0,0,38.917,387.373Z" transform="translate(-36.26 -385.709)" fill="#ffeaa2"/>
      <path id="Path_1751" data-name="Path 1751" d="M49.636,403.065a.148.148,0,1,0-.126-.168A.148.148,0,0,0,49.636,403.065Z" transform="translate(-46.155 -400.261)" fill="#ffeaa2"/>
      <path id="Path_1752" data-name="Path 1752" d="M10,424.277a.311.311,0,1,0-.393-.2A.311.311,0,0,0,10,424.277Z" transform="translate(-9.59 -419.405)" fill="#ffeaa2"/>
      <path id="Path_1753" data-name="Path 1753" d="M16.38,431.9a.246.246,0,1,0,.157-.31A.246.246,0,0,0,16.38,431.9Z" transform="translate(-15.798 -426.644)" fill="#ffeaa2"/>
      <path id="Path_1754" data-name="Path 1754" d="M26.253,431.751a.148.148,0,1,0-.187-.095A.148.148,0,0,0,26.253,431.751Z" transform="translate(-24.675 -426.543)" fill="#ffeaa2"/>
      <path id="Path_1755" data-name="Path 1755" d="M30.874,400.787a.23.23,0,1,0-.318-.07A.23.23,0,0,0,30.874,400.787Z" transform="translate(-28.762 -398.056)" fill="#ffeaa2"/>
      <path id="Path_1756" data-name="Path 1756" d="M25.359,423.22a.182.182,0,1,0-.251-.055A.182.182,0,0,0,25.359,423.22Z" transform="translate(-23.778 -418.686)" fill="#ffeaa2"/>
      <path id="Path_1757" data-name="Path 1757" d="M34.692,419.723a.109.109,0,1,0,.151.033A.11.11,0,0,0,34.692,419.723Z" transform="translate(-32.537 -415.773)" fill="#ffeaa2"/>
    </g>
  </g>
  <g id="Group_29" data-name="Group 29" transform="translate(16.346 13.045)">
    <ellipse id="Ellipse_15" data-name="Ellipse 15" cx="1.929" cy="1.359" rx="1.929" ry="1.359" fill="url(#linear-gradient-9)"/>
    <g id="Group_28" data-name="Group 28" transform="translate(0.909 0.23)">
      <ellipse id="Ellipse_16" data-name="Ellipse 16" cx="0.308" cy="0.308" rx="0.308" ry="0.308" transform="translate(0.507)" fill="url(#linear-gradient-10)"/>
      <ellipse id="Ellipse_17" data-name="Ellipse 17" cx="0.243" cy="0.243" rx="0.243" ry="0.243" transform="translate(0 0.862)" fill="url(#linear-gradient-11)"/>
      <ellipse id="Ellipse_18" data-name="Ellipse 18" cx="0.147" cy="0.147" rx="0.147" ry="0.147" transform="translate(1.157 1.163)" fill="url(#linear-gradient-12)"/>
    </g>
  </g>
  <g id="Group_31" data-name="Group 31" transform="translate(8.358 19.965)">
    <ellipse id="Ellipse_19" data-name="Ellipse 19" cx="1.929" cy="1.359" rx="1.929" ry="1.359" fill="url(#linear-gradient-9)"/>
    <g id="Group_30" data-name="Group 30" transform="translate(0.909 0.23)">
      <ellipse id="Ellipse_20" data-name="Ellipse 20" cx="0.308" cy="0.308" rx="0.308" ry="0.308" transform="translate(0.507)" fill="url(#linear-gradient-14)"/>
      <ellipse id="Ellipse_21" data-name="Ellipse 21" cx="0.243" cy="0.243" rx="0.243" ry="0.243" transform="translate(0 0.862)" fill="url(#linear-gradient-15)"/>
      <ellipse id="Ellipse_22" data-name="Ellipse 22" cx="0.147" cy="0.147" rx="0.147" ry="0.147" transform="translate(1.157 1.163)" fill="url(#linear-gradient-16)"/>
    </g>
  </g>
  <g id="Group_33" data-name="Group 33" transform="translate(18.302 21.955)">
    <ellipse id="Ellipse_23" data-name="Ellipse 23" cx="1.929" cy="1.359" rx="1.929" ry="1.359" fill="url(#linear-gradient-9)"/>
    <g id="Group_32" data-name="Group 32" transform="translate(0.909 0.23)">
      <ellipse id="Ellipse_24" data-name="Ellipse 24" cx="0.308" cy="0.308" rx="0.308" ry="0.308" transform="translate(0.507)" fill="url(#linear-gradient-18)"/>
      <ellipse id="Ellipse_25" data-name="Ellipse 25" cx="0.243" cy="0.243" rx="0.243" ry="0.243" transform="translate(0 0.862)" fill="url(#linear-gradient-19)"/>
      <ellipse id="Ellipse_26" data-name="Ellipse 26" cx="0.147" cy="0.147" rx="0.147" ry="0.147" transform="translate(1.157 1.163)" fill="url(#linear-gradient-20)"/>
    </g>
  </g>
  <g id="Group_35" data-name="Group 35" transform="translate(32.528 17.456)">
    <ellipse id="Ellipse_27" data-name="Ellipse 27" cx="1.929" cy="1.359" rx="1.929" ry="1.359" transform="translate(0 0)" fill="url(#linear-gradient-9)"/>
    <g id="Group_34" data-name="Group 34" transform="translate(0.909 0.23)">
      <ellipse id="Ellipse_28" data-name="Ellipse 28" cx="0.308" cy="0.308" rx="0.308" ry="0.308" transform="translate(0.507)" fill="url(#linear-gradient-22)"/>
      <ellipse id="Ellipse_29" data-name="Ellipse 29" cx="0.243" cy="0.243" rx="0.243" ry="0.243" transform="translate(0 0.862)" fill="url(#linear-gradient-23)"/>
      <ellipse id="Ellipse_30" data-name="Ellipse 30" cx="0.147" cy="0.147" rx="0.147" ry="0.147" transform="translate(1.157 1.163)" fill="url(#linear-gradient-24)"/>
    </g>
  </g>
  <g id="Group_37" data-name="Group 37" transform="translate(16.45 4.963)">
    <ellipse id="Ellipse_31" data-name="Ellipse 31" cx="1.929" cy="1.359" rx="1.929" ry="1.359" transform="translate(0 0)" fill="url(#linear-gradient-9)"/>
    <g id="Group_36" data-name="Group 36" transform="translate(0.909 0.23)">
      <ellipse id="Ellipse_32" data-name="Ellipse 32" cx="0.308" cy="0.308" rx="0.308" ry="0.308" transform="translate(0.507)" fill="url(#linear-gradient-26)"/>
      <ellipse id="Ellipse_33" data-name="Ellipse 33" cx="0.243" cy="0.243" rx="0.243" ry="0.243" transform="translate(0 0.862)" fill="url(#linear-gradient-27)"/>
      <ellipse id="Ellipse_34" data-name="Ellipse 34" cx="0.147" cy="0.147" rx="0.147" ry="0.147" transform="translate(1.157 1.163)" fill="url(#linear-gradient-28)"/>
    </g>
  </g>
  <g id="Group_38" data-name="Group 38" transform="translate(13.193 6.821)">
    <path id="Path_1758" data-name="Path 1758" d="M165.151,116.113a5.9,5.9,0,0,0-6.713,0,3,3,0,0,0,0,5.062,5.9,5.9,0,0,0,6.713,0A3,3,0,0,0,165.151,116.113Zm-5.488,3.441a1.558,1.558,0,0,1,0-2.808,4.2,4.2,0,0,1,4.262,0,1.558,1.558,0,0,1,0,2.808A4.2,4.2,0,0,1,159.663,119.555Z" transform="translate(-157.048 -115.065)" fill="url(#linear-gradient-29)"/>
    <path id="Path_1759" data-name="Path 1759" d="M167.706,124.977a5.057,5.057,0,0,0,5.584,0,2.359,2.359,0,0,0,0-4.059,5.056,5.056,0,0,0-5.584,0A2.359,2.359,0,0,0,167.706,124.977Zm4.923-3.639a1.558,1.558,0,0,1,0,2.808,4.2,4.2,0,0,1-4.262,0,1.558,1.558,0,0,1,0-2.808A4.2,4.2,0,0,1,172.629,121.338Z" transform="translate(-165.751 -119.656)" fill="url(#linear-gradient-30)"/>
  </g>
  <path id="Path_1760" data-name="Path 1760" d="M23.991,361.758a1.809,1.809,0,0,0,1.978-.444c.078-.1.044-.22-.065-.341a.268.268,0,0,1,.088-.42l.028-.018c.214-.14.165-.387-.1-.48l-1.035-.371c-.26-.093-.573.024-.608.228a.429.429,0,0,1-.435.288.51.51,0,0,0-.392.144C23.056,360.856,23.3,361.49,23.991,361.758Z" transform="translate(-21.308 -332.283)" fill="url(#linear-gradient-31)"/>
  <g id="Group_39" data-name="Group 39" transform="translate(2.719 23.204)">
    <path id="Path_1761" data-name="Path 1761" d="M39.278,310.985a5.033,5.033,0,0,0-5.73,0,2.56,2.56,0,0,0,0,4.321,5.034,5.034,0,0,0,5.73,0A2.56,2.56,0,0,0,39.278,310.985Zm-4.684,2.937a1.33,1.33,0,0,1,0-2.4,3.582,3.582,0,0,1,3.638,0,1.329,1.329,0,0,1,0,2.4A3.583,3.583,0,0,1,34.594,313.922Z" transform="translate(-32.362 -310.09)" fill="url(#linear-gradient-32)"/>
    <path id="Path_1762" data-name="Path 1762" d="M41.46,318.549a4.317,4.317,0,0,0,4.766,0,2.014,2.014,0,0,0,0-3.465,4.316,4.316,0,0,0-4.766,0A2.014,2.014,0,0,0,41.46,318.549Zm4.2-3.106a1.33,1.33,0,0,1,0,2.4,3.582,3.582,0,0,1-3.638,0,1.329,1.329,0,0,1,0-2.4A3.583,3.583,0,0,1,45.662,315.443Z" transform="translate(-39.791 -314.007)" fill="url(#linear-gradient-33)"/>
  </g>
  <path id="Path_1763" data-name="Path 1763" d="M316.161,268.472a1.808,1.808,0,0,0-1.978.444c-.078.1-.044.22.065.341a.268.268,0,0,1-.088.42l-.028.018c-.214.14-.165.387.1.48l1.035.371c.26.093.573-.024.608-.228a.429.429,0,0,1,.435-.288.511.511,0,0,0,.392-.144C317.1,269.373,316.855,268.74,316.161,268.472Z" transform="translate(-287.62 -248.654)" fill="url(#linear-gradient-34)"/>
  <g id="Group_41" data-name="Group 41" transform="translate(23.623 14.943)">
    <ellipse id="Ellipse_35" data-name="Ellipse 35" cx="3.662" cy="2.58" rx="3.662" ry="2.58" transform="translate(0 0)" fill="url(#linear-gradient-35)"/>
    <g id="Group_40" data-name="Group 40" transform="translate(1.725 0.436)">
      <ellipse id="Ellipse_36" data-name="Ellipse 36" cx="0.585" cy="0.585" rx="0.585" ry="0.585" transform="translate(0.963)" fill="url(#linear-gradient-36)"/>
      <ellipse id="Ellipse_37" data-name="Ellipse 37" cx="0.462" cy="0.462" rx="0.462" ry="0.462" transform="translate(0 1.636)" fill="url(#linear-gradient-37)"/>
      <ellipse id="Ellipse_38" data-name="Ellipse 38" cx="0.278" cy="0.278" rx="0.278" ry="0.278" transform="translate(2.197 2.207)" fill="url(#linear-gradient-38)"/>
    </g>
  </g>
  <g id="Group_43" data-name="Group 43" transform="translate(8.173 21.753)">
    <ellipse id="Ellipse_39" data-name="Ellipse 39" cx="3.662" cy="2.58" rx="3.662" ry="2.58" fill="url(#linear-gradient-35)"/>
    <g id="Group_42" data-name="Group 42" transform="translate(1.725 0.436)">
      <ellipse id="Ellipse_40" data-name="Ellipse 40" cx="0.585" cy="0.585" rx="0.585" ry="0.585" transform="translate(0.963)" fill="url(#linear-gradient-40)"/>
      <ellipse id="Ellipse_41" data-name="Ellipse 41" cx="0.462" cy="0.462" rx="0.462" ry="0.462" transform="translate(0 1.636)" fill="url(#linear-gradient-41)"/>
      <ellipse id="Ellipse_42" data-name="Ellipse 42" cx="0.278" cy="0.278" rx="0.278" ry="0.278" transform="translate(2.197 2.207)" fill="url(#linear-gradient-42)"/>
    </g>
  </g>
  <path id="Path_1764" data-name="Path 1764" d="M210.178,229.336a1.809,1.809,0,0,0-1.978.444c-.078.1-.044.22.065.341a.268.268,0,0,1-.088.42l-.028.018c-.214.14-.165.387.1.48l1.035.371c.26.093.573-.024.608-.228a.429.429,0,0,1,.435-.288.51.51,0,0,0,.392-.144C211.113,230.237,210.872,229.6,210.178,229.336Z" transform="translate(-190.54 -212.806)" fill="url(#linear-gradient-34)"/>
  <path id="Path_1765" data-name="Path 1765" d="M223.642,297.895c.851-.142,1.485-.679,1.485-1.321,0-.751-.864-1.359-1.929-1.359a2.215,2.215,0,0,0-1.617.619Z" transform="translate(-202.966 -273.259)" fill="url(#linear-gradient-44)"/>
  <g id="Group_44" data-name="Group 44" transform="translate(17.259 17.144)">
    <path id="Path_1766" data-name="Path 1766" d="M212.356,238.845a5.033,5.033,0,0,0-5.73,0,2.56,2.56,0,0,0,0,4.321,5.033,5.033,0,0,0,5.73,0A2.56,2.56,0,0,0,212.356,238.845Zm-4.684,2.937a1.33,1.33,0,0,1,0-2.4,3.582,3.582,0,0,1,3.638,0,1.329,1.329,0,0,1,0,2.4A3.583,3.583,0,0,1,207.672,241.782Z" transform="translate(-205.44 -237.95)" fill="url(#linear-gradient-45)"/>
    <path id="Path_1767" data-name="Path 1767" d="M214.539,246.409a4.317,4.317,0,0,0,4.766,0,2.014,2.014,0,0,0,0-3.465,4.316,4.316,0,0,0-4.766,0A2.014,2.014,0,0,0,214.539,246.409Zm4.2-3.106a1.33,1.33,0,0,1,0,2.4,3.582,3.582,0,0,1-3.638,0,1.329,1.329,0,0,1,0-2.4A3.582,3.582,0,0,1,218.741,243.3Z" transform="translate(-212.87 -241.867)" fill="url(#linear-gradient-46)"/>
  </g>
  <path id="Path_1768" data-name="Path 1768" d="M57.866,278.646c-.923,0-1.672.533-1.672,1.191s.748,1.191,1.672,1.191,1.672-.533,1.672-1.191S58.789,278.646,57.866,278.646Zm0,1.7c-.392,0-.71-.226-.71-.505s.318-.505.71-.505.71.226.71.505S58.258,280.342,57.866,280.342Z" transform="translate(-51.473 -258.083)" fill="url(#linear-gradient-47)"/>
  <path id="Path_1769" data-name="Path 1769" d="M158.719,251.023c-.923,0-1.672.533-1.672,1.191s.748,1.191,1.672,1.191,1.672-.533,1.672-1.191S159.642,251.023,158.719,251.023Zm0,1.7c-.392,0-.71-.226-.71-.505s.318-.505.71-.505.71.226.71.505S159.11,252.719,158.719,252.719Z" transform="translate(-143.854 -232.781)" fill="url(#linear-gradient-47)"/>
  <path id="Path_1770" data-name="Path 1770" d="M287.157,179.706c-.923,0-1.672.533-1.672,1.191s.748,1.191,1.672,1.191,1.672-.533,1.672-1.191S288.08,179.706,287.157,179.706Zm0,1.7c-.392,0-.71-.226-.71-.505s.318-.505.71-.505.71.226.71.505S287.549,181.4,287.157,181.4Z" transform="translate(-261.502 -167.455)" fill="url(#linear-gradient-49)"/>
  <path id="Path_1771" data-name="Path 1771" d="M18.5,388.757c-.923,0-1.672.533-1.672,1.191s.748,1.191,1.672,1.191,1.672-.533,1.672-1.191S19.423,388.757,18.5,388.757Zm0,1.7c-.392,0-.71-.226-.71-.505s.318-.505.71-.505.71.226.71.505S18.892,390.453,18.5,390.453Z" transform="translate(-15.414 -358.944)" fill="url(#linear-gradient-47)"/>
  <g id="Group_46" data-name="Group 46" transform="translate(8.562 12.798)">
    <ellipse id="Ellipse_43" data-name="Ellipse 43" cx="3.662" cy="2.58" rx="3.662" ry="2.58" fill="url(#linear-gradient-35)"/>
    <g id="Group_45" data-name="Group 45" transform="translate(1.725 0.436)">
      <ellipse id="Ellipse_44" data-name="Ellipse 44" cx="0.585" cy="0.585" rx="0.585" ry="0.585" transform="translate(0.963)" fill="url(#linear-gradient-52)"/>
      <ellipse id="Ellipse_45" data-name="Ellipse 45" cx="0.462" cy="0.462" rx="0.462" ry="0.462" transform="translate(0 1.636)" fill="url(#linear-gradient-53)"/>
      <ellipse id="Ellipse_46" data-name="Ellipse 46" cx="0.278" cy="0.278" rx="0.278" ry="0.278" transform="translate(2.197 2.207)" fill="url(#linear-gradient-54)"/>
    </g>
  </g>
  <path id="Path_1772" data-name="Path 1772" d="M276.829,136.62a1.808,1.808,0,0,0-1.978.444c-.078.1-.044.22.065.341a.268.268,0,0,1-.088.42l-.028.018c-.214.14-.165.387.1.48l1.035.371c.26.093.573-.024.608-.228a.429.429,0,0,1,.435-.288.51.51,0,0,0,.392-.144C277.763,137.521,277.523,136.888,276.829,136.62Z" transform="translate(-251.592 -127.879)" fill="url(#linear-gradient-34)"/>
  <path id="Path_1773" data-name="Path 1773" d="M195.615,39.793a41.611,41.611,0,0,1,9.92,5.764c3.806,2.8,6.735,6.982,8.907,9.691,1.167,1.455,4.38,1.191,5.442-.467a4.713,4.713,0,0,0-.011-4.369,46.274,46.274,0,0,0-10.15-9.827,43.855,43.855,0,0,0-12.215-6.6,2.779,2.779,0,0,0-3.124,1.272A3.068,3.068,0,0,0,195.615,39.793Z" transform="translate(-177.571 -33.875)" fill="url(#linear-gradient-56)"/>
</svg>
