<svg xmlns="http://www.w3.org/2000/svg" width="24.652" height="27.169" viewBox="0 0 24.652 27.169">
  <g id="Icon_feather-share-2" data-name="Icon feather-share-2" transform="translate(-3.5 -2)">
    <path id="Path_2851" data-name="Path 2851" d="M30.051,6.775A3.775,3.775,0,1,1,26.275,3a3.775,3.775,0,0,1,3.775,3.775Z" transform="translate(-2.899 0)" fill="none" stroke="#fff" stroke-linecap="round" stroke-linejoin="round" stroke-width="2"/>
    <path id="Path_2852" data-name="Path 2852" d="M12.051,17.275A3.775,3.775,0,1,1,8.275,13.5,3.775,3.775,0,0,1,12.051,17.275Z" transform="translate(0 -1.691)" fill="none" stroke="#fff" stroke-linecap="round" stroke-linejoin="round" stroke-width="2"/>
    <path id="Path_2853" data-name="Path 2853" d="M30.051,27.775A3.775,3.775,0,1,1,26.275,24,3.775,3.775,0,0,1,30.051,27.775Z" transform="translate(-2.899 -3.382)" fill="none" stroke="#fff" stroke-linecap="round" stroke-linejoin="round" stroke-width="2"/>
    <path id="Path_2854" data-name="Path 2854" d="M12.885,20.265l8.6,5.009" transform="translate(-1.35 -2.781)" fill="none" stroke="#fff" stroke-linecap="round" stroke-linejoin="round" stroke-width="2"/>
    <path id="Path_2855" data-name="Path 2855" d="M21.467,9.765l-8.582,5.009" transform="translate(-1.35 -1.089)" fill="none" stroke="#fff" stroke-linecap="round" stroke-linejoin="round" stroke-width="2"/>
  </g>
</svg>
