<svg xmlns="http://www.w3.org/2000/svg" width="26.108" height="26.114" viewBox="0 0 26.108 26.114">
  <g id="wallet" transform="translate(0.247 0.255)">
    <g id="Group_43" data-name="Group 43" transform="translate(0.003 0)">
      <g id="Group_42" data-name="Group 42" transform="translate(0 0)">
        <path id="Path_105" data-name="Path 105" d="M24.447,12.912v-3.6A2.323,2.323,0,0,0,22.3,7L18.962,1.165A2.3,2.3,0,0,0,15.8.314L4.343,6.984H2.331A2.33,2.33,0,0,0,0,9.312V23.28a2.33,2.33,0,0,0,2.328,2.328H22.119a2.33,2.33,0,0,0,2.328-2.328v-3.6a1.743,1.743,0,0,0,1.164-1.639V14.55A1.743,1.743,0,0,0,24.447,12.912Zm-3.5-5.927H15.879l3.8-2.215ZM19.105,3.759l-5.54,3.225h-2.3l7.263-4.229ZM16.388,1.32a1.126,1.126,0,0,1,.864-.116,1.141,1.141,0,0,1,.7.54v0l-9,5.239h-2.3Zm6.9,21.961a1.166,1.166,0,0,1-1.164,1.164H2.331A1.166,1.166,0,0,1,1.167,23.28V9.312A1.166,1.166,0,0,1,2.331,8.148H22.119a1.166,1.166,0,0,1,1.164,1.164V12.8H19.791a3.492,3.492,0,1,0,0,6.984h3.492Zm1.164-5.238a.582.582,0,0,1-.582.582H19.791a2.328,2.328,0,1,1,0-4.656h4.074a.582.582,0,0,1,.582.582Z" transform="translate(-0.003 0)" fill="#c5c4d8" stroke="#c5c4d8" stroke-width="0.5"/>
        <path id="Path_106" data-name="Path 106" d="M342.5,277.341a1.164,1.164,0,1,0,1.164,1.164A1.166,1.166,0,0,0,342.5,277.341Z" transform="translate(-322.713 -262.209)" fill="#c5c4d8" stroke="#c5c4d8" stroke-width="0.5"/>
      </g>
    </g>
  </g>
</svg>
